<svg width="15" height="15" viewBox="0 0 15 15" fill="none" xmlns="http://www.w3.org/2000/svg">
<path d="M1.02936 7.29199H0.640381V8.3032H1.02936V7.29199Z" fill="#141B35"/>
<path d="M13.9662 8.30225L14.3552 8.30225L14.3552 7.29104L13.9662 7.29104L13.9662 8.30225Z" fill="#141B35"/>
<path d="M1.51818 9.27291L0.840005 9.45315L0.528201 8.32662C0.494682 8.20671 0.567177 8.08298 0.69034 8.05014L0.924972 7.98751C1.04736 7.95467 1.17364 8.0257 1.20715 8.14637L1.51818 9.27291Z" fill="#19224C"/>
<path d="M13.4773 9.27291L14.1555 9.45315L14.4673 8.32662C14.5008 8.20671 14.4283 8.08298 14.3051 8.05014L14.0705 7.98751C13.9481 7.95467 13.8218 8.0257 13.7883 8.14637L13.4773 9.27291Z" fill="#19224C"/>
<path d="M1.95645 9.48963L1.63841 9.18718C1.50043 9.05582 1.29464 9.01992 1.11925 9.0963L0.794199 9.23683C0.583731 9.32771 0.471482 9.55455 0.528386 9.77222L1.45366 13.342C1.50745 13.549 1.69921 13.6933 1.91747 13.6903L2.25578 13.6857C2.43819 13.6834 2.60344 13.5772 2.67827 13.4138L2.83184 13.08L2.93629 12.6844L2.16614 9.71646L1.95645 9.48963Z" fill="#141B35"/>
<path d="M3.92222 14.032C3.73202 14.0771 3.53325 14.0061 3.41632 13.8526L2.83091 13.0804L1.9563 9.48999L2.05608 8.50322C2.07634 8.30006 2.22679 8.13204 2.42946 8.08545L2.61343 8.23667L4.02668 13.835L3.92222 14.032Z" fill="#19224C"/>
<path d="M13.0394 9.48963L13.3575 9.18718C13.4954 9.05582 13.7012 9.01992 13.8766 9.0963L14.2017 9.23683C14.4121 9.32771 14.5244 9.55455 14.4675 9.77222L13.5422 13.342C13.4884 13.549 13.2967 13.6933 13.0784 13.6903L12.7401 13.6857C12.5577 13.6834 12.3924 13.5772 12.3176 13.4138L12.164 13.08L12.0596 12.6844L12.8297 9.71723L13.0394 9.48963Z" fill="#141B35"/>
<path d="M11.0734 14.032C11.2636 14.0771 11.4624 14.0061 11.5793 13.8526L12.1648 13.0804L13.0394 9.48999L12.9396 8.50322C12.9193 8.30006 12.7689 8.13204 12.5662 8.08545L12.3822 8.23667L10.969 13.835L11.0734 14.032Z" fill="#19224C"/>
<path d="M13.9513 6.98404H13.1539C13.0985 6.98404 13.0541 6.94127 13.0541 6.88857C13.0541 6.15384 12.8982 5.45424 12.6168 4.81803C11.7741 2.91323 9.80276 1.57513 7.50477 1.56902H7.48996C5.19118 1.57513 3.22058 2.91246 2.37793 4.81803C2.09653 5.45424 1.94063 6.15384 1.94063 6.88857C1.94063 6.94127 1.89619 6.98404 1.84085 6.98404H1.04419L1.09642 6.56855C1.49553 3.3753 4.16457 0.916011 7.44241 0.722782L7.49853 0.719727L7.55466 0.722782C10.8325 0.916011 13.5015 3.3753 13.9006 6.56855L13.9513 6.98404Z" fill="#0E1323"/>
<path d="M4.55434 13.8832L3.92216 14.0321L2.43018 8.08551L3.05378 7.94192C3.33207 7.87777 3.61191 8.04503 3.68129 8.31692L4.93942 13.2599C5.01035 13.5364 4.8373 13.816 4.55434 13.8832Z" fill="#3245CE"/>
<path d="M10.4413 13.8832L11.0735 14.0321L12.5654 8.08551L11.9418 7.94192C11.6635 7.87777 11.3837 8.04503 11.3143 8.31692L10.0562 13.2599C9.98525 13.5364 10.1583 13.816 10.4413 13.8832Z" fill="#3245CE"/>
<path d="M14.4978 6.90316V7.42175C14.4978 7.49965 14.4331 7.56227 14.3544 7.56227H14.0956C13.9366 7.56227 13.7916 7.49888 13.6871 7.39654C13.5827 7.2942 13.518 7.1529 13.518 6.99633C13.518 3.74732 10.8224 1.1139 7.4978 1.1139C5.00415 1.1139 2.8644 2.59558 1.95081 4.7066C1.64602 5.41002 1.47765 6.1837 1.47765 6.99633C1.47765 7.30871 1.21885 7.56227 0.90003 7.56227H0.641233C0.561723 7.56227 0.497803 7.49888 0.497803 7.42175V6.90316C0.497803 4.06276 2.26028 1.62485 4.77264 0.583857C5.61061 0.237112 6.53121 0.0454102 7.4978 0.0454102C11.3634 0.0454102 14.4978 3.1157 14.4978 6.90316Z" fill="#141B35"/>
<path d="M1.88359 3.30518C1.76978 3.4732 1.66065 3.65039 1.55542 3.83828L1.94128 4.0338C1.94128 4.0338 2.05353 3.82529 2.28192 3.51444L1.88359 3.30518Z" fill="#2D3A60"/>
<path d="M2.61413 3.09603C3.26736 2.33609 4.40076 1.33557 6.04397 0.985011L5.96836 0.445801C5.96836 0.445801 3.8021 0.836843 2.18384 2.8944L2.61413 3.09603Z" fill="#2D3A60"/>
<path d="M1.15285 9.71938L0.794189 9.7998L1.12705 11.2248L1.48571 11.1444L1.15285 9.71938Z" fill="#2D3A60"/>
<path d="M1.53078 11.3375L1.17212 11.418L1.24777 11.7418L1.60643 11.6614L1.53078 11.3375Z" fill="#2D3A60"/>
<path d="M13.0412 13.0883L13.3962 13.1826L14.3381 9.77943L13.983 9.68509L13.0412 13.0883Z" fill="#0C101C"/>
</svg>
