<svg width="25" height="24" viewBox="0 0 25 24" fill="none" xmlns="http://www.w3.org/2000/svg">
<path d="M9.62925 20.7733V17.7156C9.62925 16.9351 10.2678 16.3023 11.0556 16.3023H13.9352C14.3135 16.3023 14.6763 16.4512 14.9438 16.7163C15.2113 16.9813 15.3615 17.3408 15.3615 17.7156V20.7733C15.3592 21.0978 15.4876 21.4099 15.7183 21.6402C15.9491 21.8705 16.263 22 16.5905 22H18.5551C19.4727 22.0023 20.3534 21.6428 21.0031 21.0008C21.6527 20.3588 22.0178 19.487 22.0178 18.5778V9.86686C22.0178 9.13246 21.6893 8.43584 21.1208 7.96467L14.4376 2.67587C13.275 1.74856 11.6093 1.7785 10.4815 2.74698L3.95077 7.96467C3.35538 8.42195 2.99952 9.12064 2.98193 9.86686V18.5689C2.98193 20.4639 4.53224 22 6.44464 22H8.36437C9.04459 22 9.59741 21.4562 9.60234 20.7822L9.62925 20.7733Z" fill="#4838D1"/>
</svg>
