<svg width="13" height="13" viewBox="0 0 13 13" fill="none" xmlns="http://www.w3.org/2000/svg">
<path d="M11.7872 4.27095L8.18983 3.72347L6.58171 0.309512C6.53779 0.216039 6.46553 0.140372 6.37627 0.0943773C6.15241 -0.0213502 5.88037 0.0750894 5.76844 0.309512L4.16033 3.72347L0.562959 4.27095C0.46378 4.28579 0.373101 4.33475 0.303676 4.40893C0.219745 4.49927 0.173495 4.62081 0.175089 4.74683C0.176683 4.87286 0.22599 4.99307 0.312177 5.08104L2.91492 7.73832L2.30001 11.4906C2.28559 11.5778 2.29481 11.6676 2.32663 11.7497C2.35846 11.8318 2.4116 11.9029 2.48005 11.9549C2.54849 12.007 2.62949 12.0379 2.71387 12.0442C2.79825 12.0505 2.88262 12.0319 2.95742 11.9906L6.17508 10.219L9.39273 11.9906C9.48057 12.0395 9.58259 12.0558 9.68035 12.038C9.92688 11.9935 10.0927 11.7487 10.0501 11.4906L9.43524 7.73832L12.038 5.08104C12.1088 5.00834 12.1556 4.91339 12.1697 4.80953C12.208 4.54988 12.0351 4.30953 11.7872 4.27095Z" fill="#F77A55"/>
</svg>
